PathFileType	4	(X/Y/Z)	C:\Users\°ÂÌØÂü\Desktop\20210112\bx_n_0_901-Unnamed.trc
DataRate	CameraRate	NumFrames	NumMarkers	Units	OrigDataRate	OrigDataStartFrame	OrigNumFrames
50.00	50.00	       4	0	mm	50.00	1	       370
Frame#	Time	
		

1	0.000	-679.39600	-81.19820	1535.89514	-579.12720	105.41292	1356.01196	-584.88153	-10.09608	1051.39734	-589.23804	236.32057	1062.32666	-674.19568	281.97787	872.03369	-580.24237	-9.29551	800.55609	-580.50446	216.62692	790.41156	-683.43292	268.84558	742.28748	-721.35223	252.03285	641.38489	-691.85217	72.10000	571.23785	-689.26324	141.33360	573.90710	-664.38641	14.76865	518.26312	-721.43750	245.94003	575.19208	-671.21735	201.93983	532.88757	-761.36835	258.40262	502.22748	-719.53339	70.69967	216.33299	-648.21747	-66.40196	163.01299	-714.66083	150.28973	216.95576	-764.49097	227.49777	205.92747	-606.00024	-71.41859	158.88123	-882.50012	295.98505	144.57483	-674.26935	54.31195	158.11404	-600.35016	28.35957	166.15994	-547.99591	-24.64933	164.38618	-517.78125	-73.11418	143.31047	-589.33752	207.25165	173.96655	-652.52454	291.54031	157.26468	-615.31104	297.58047	158.82164	-552.60327	243.27063	166.02673	-528.29199	303.90353	146.45262	-658.33240	112.37701	1852.25220	-795.42377	179.91154	184.62459	-697.41040	283.68307	1531.56494	-793.49933	39.18307	175.10901	-789.21130	92.80769	1062.28650	-755.21625	-47.94950	488.18793	-758.24927	-18.97991	206.83609	-875.99792	-78.69180	141.55168				-676.56097	-65.85899	754.47583	-702.47339	-37.71268	613.17145	-711.09741	-34.81820	567.27924	-675.43225	165.77403	157.25008	-655.25592	-76.30264	870.75092	
2	0.020	-679.43823	-81.26122	1535.88391	-579.14166	105.39124	1356.09827	-584.88153	-10.09608	1051.39734	-589.10071	236.12331	1062.34448	-674.12701	282.10727	872.15271	-580.25879	-9.62889	800.51904	-580.60419	216.66533	790.42352	-683.61072	268.82953	742.61871	-721.25061	251.94249	641.27551	-691.75983	72.15416	571.01648	-689.32843	141.45456	573.91858	-664.38641	14.76865	518.26312	-721.60327	246.15959	575.35602	-670.77747	201.96222	533.14563	-761.47174	258.39395	502.27948	-719.71631	70.92268	216.57156	-648.26538	-66.57335	163.07167	-714.79254	150.30473	217.07227	-764.60126	227.37590	205.63509	-605.84216	-71.28957	158.91849	-882.48181	295.85263	144.48856	-674.40112	54.29406	158.18411	-600.24292	28.48021	166.63147	-548.14349	-24.73225	164.26662	-517.73938	-72.73896	143.02408	-589.34424	207.40147	174.07272	-652.52454	291.54031	157.26468	-615.29718	297.35394	158.79335	-552.68567	243.19365	165.97015	-527.99121	303.85306	146.51685	-658.53998	112.25168	1852.34375	-795.59271	179.86615	184.84013	-697.40167	283.61575	1531.54321	-793.51080	39.14162	175.11395	-789.15503	92.82899	1062.18042	-755.16455	-47.99523	488.22812	-758.21912	-19.02353	206.93077	-875.85522	-78.73365	141.22168				-676.56097	-65.85899	754.47583	-702.44653	-37.67827	612.96710	-711.00464	-34.87429	567.36023	-675.43225	165.77403	157.25008	-655.16998	-76.12554	870.61151	
3	0.040	-679.45227	-81.42970	1535.75916	-579.14166	105.39124	1356.09827	-585.08533	-10.38898	1051.24854	-589.10229	236.07318	1062.28528	-674.13605	281.99368	872.35217	-580.42944	-9.11968	800.76282	-580.68915	216.64117	790.26373	-683.72363	268.63788	742.19781	-720.90802	251.94257	641.37390	-691.49927	71.92772	571.08478	-689.43506	141.32901	573.75641	-664.38641	14.76865	518.26312	-721.43610	245.87869	575.26251	-671.10498	201.96642	532.96344	-761.34918	258.16733	502.17532	-719.71631	70.92268	216.57156	-648.16736	-66.51337	163.03886	-714.75031	150.25082	217.09871	-764.55878	227.38408	205.75153	-606.00085	-71.37160	159.03293	-882.43848	296.14664	144.73779	-674.15808	54.34431	158.02867	-600.47168	28.26451	166.06480	-547.99591	-24.64933	164.38618	-517.73657	-72.68130	143.04131	-589.27271	207.28493	173.90096	-652.58356	291.75137	157.06828	-615.37891	297.47803	158.78842	-552.59442	243.14197	166.15768	-528.05273	303.95248	146.58699	-658.67981	112.00894	1852.34863	-795.55804	180.02353	184.77708	-697.44885	283.56802	1531.65381	-793.58252	39.30499	175.12967	-789.30817	92.48249	1062.38916	-755.21625	-47.94950	488.18793	-758.19635	-19.01923	206.86519	-876.07831	-78.80435	141.53267				-676.49170	-65.94146	754.48541	-702.54883	-37.68636	613.08356	-711.07446	-35.14110	567.53143	-675.43225	165.77403	157.25008	-655.33069	-76.39586	870.90338	
4	0.060	-679.45905	-81.48737	1535.83679	-579.07892	105.27356	1356.17908	-585.02954	-10.50066	1051.19690	-589.00916	236.06387	1062.36926	-674.20056	281.81918	872.29132	-580.42944	-9.11968	800.76282	-580.76648	216.32254	790.30902	-683.91248	268.54611	742.47723	-721.15179	252.01033	641.49176	-691.49927	71.92772	571.08478	-689.36139	141.34451	573.82855	-664.45990	14.62724	518.21582	-721.05011	245.46867	574.85962	-671.21948	201.85234	532.95697	-761.22314	258.11575	502.32776	-719.59302	70.84173	216.42990	-648.24603	-66.67514	162.95143	-714.79254	150.30473	217.07227	-764.61896	227.33504	205.80896	-606.06848	-71.47654	158.94894	-882.71997	296.25824	144.64258	-674.40112	54.29406	158.18411	-600.36456	28.30087	166.17993	-547.86011	-24.62768	164.25790	-517.66852	-72.70335	143.16061	-589.26678	207.45680	174.02608	-652.52454	291.54031	157.26468	-615.37891	297.47803	158.78842	-552.72565	243.08517	165.94075	-528.18390	304.18793	146.52794	-658.85687	111.81318	1852.30396	-795.66052	179.80016	184.97577	-697.49072	283.38425	1531.68921	-793.66266	39.28226	175.31346	-789.27783	92.66164	1062.10034	-755.20062	-48.01461	488.16156	-758.21912	-19.02353	206.93077	-875.95648	-78.79716	141.44162				-676.49170	-65.94146	754.48541	-702.47754	-37.81054	613.17340	-710.92389	-35.23022	567.52747	-675.47968	165.86617	157.23630	-655.28033	-76.70850	871.01740	
